<?xml version="1.0" encoding="UTF-8"?>
<!DOCTYPE svg PUBLIC "-//W3C//DTD SVG 1.1//EN" "http://www.w3.org/Graphics/SVG/1.1/DTD/svg11.dtd">
<!-- Creator: CorelDRAW X8 -->
<svg xmlns="http://www.w3.org/2000/svg" xml:space="preserve" width="1881.83mm" height="626.289mm" version="1.1" style="shape-rendering:geometricPrecision; text-rendering:geometricPrecision; image-rendering:optimizeQuality; fill-rule:evenodd; clip-rule:evenodd"
viewBox="0 0 89331 29730"
 xmlns:xlink="http://www.w3.org/1999/xlink">
 <defs>
  <style type="text/css">
   <![CDATA[
    .fil2 {fill:#FEFEFE}
    .fil3 {fill:#1C1B17}
    .fil4 {fill:black}
    .fil1 {fill:#ED0008}
    .fil0 {fill:black;fill-rule:nonzero}
   ]]>
  </style>
 </defs>
 <g id="Layer_x0020_1">
  <metadata id="CorelCorpID_0Corel-Layer"/>
  <g id="_2196910687712">
   <path class="fil0" d="M5193 27874l150 33 -534 1682 -4809 0 0 -168 233 0c262,0 450,-85 562,-255 64,-97 96,-322 96,-673l0 -4022c0,-387 -43,-629 -129,-726 -118,-135 -295,-202 -529,-202l-233 0 0 -169 2812 0 0 169c-329,-3 -561,27 -695,91 -133,62 -223,144 -272,239 -48,97 -73,328 -73,692l0 3918c0,255 25,428 73,524 36,65 94,112 170,143 75,30 314,46 716,46l453 0c478,0 812,-35 1005,-105 192,-70 368,-195 528,-373 157,-178 317,-460 476,-844zm4640 -356l-2407 0 -416 973c-103,241 -156,422 -156,541 0,93 45,178 136,250 89,70 284,117 583,139l0 168 -1960 0 0 -168c260,-46 427,-105 504,-178 156,-147 328,-446 517,-894l2185 -5115 155 0 2161 5170c173,415 331,684 473,809 142,123 339,192 594,208l0 168 -2450 0 0 -168c247,-13 414,-53 502,-124 87,-70 129,-156 129,-257 0,-135 -61,-347 -183,-638l-367 -884zm-140 -338l-1047 -2507 -1075 2507 2122 0zm4546 -918l2878 0 0 -1791c0,-315 -20,-523 -59,-623 -32,-75 -96,-141 -194,-195 -131,-74 -270,-110 -417,-110l-221 0 0 -169 2663 0 0 169 -221 0c-147,0 -286,35 -417,105 -98,48 -165,122 -200,220 -36,99 -53,300 -53,603l0 4022c0,314 20,522 59,622 32,76 94,142 189,196 135,74 275,110 422,110l221 0 0 168 -2663 0 0 -168 221 0c254,0 439,-75 556,-224 76,-98 114,-332 114,-704l0 -1894 -2878 0 0 1894c0,314 20,522 59,622 30,76 94,142 193,196 131,74 268,110 415,110l224 0 0 168 -2663 0 0 -168 221 0c257,0 443,-75 561,-224 73,-98 109,-332 109,-704l0 -4022c0,-315 -20,-523 -59,-623 -32,-75 -94,-141 -189,-195 -135,-74 -275,-110 -422,-110l-221 0 0 -169 2663 0 0 169 -224 0c-147,0 -284,35 -415,105 -96,48 -161,122 -197,220 -36,99 -55,300 -55,603l0 1791zm8263 -3028c805,0 1503,306 2092,919 591,612 886,1376 886,2293 0,944 -297,1726 -892,2350 -594,623 -1314,934 -2159,934 -853,0 -1570,-305 -2151,-912 -582,-608 -872,-1394 -872,-2359 0,-986 336,-1791 1006,-2414 583,-541 1279,-811 2090,-811zm-87 328c-553,0 -999,206 -1333,619 -417,514 -626,1265 -626,2256 0,1014 215,1795 648,2342 333,415 770,623 1315,623 583,0 1063,-228 1442,-683 380,-456 569,-1173 569,-2154 0,-1064 -209,-1858 -626,-2380 -335,-415 -797,-623 -1389,-623zm9772 6027l-1664 0 -2110 -2905c-152,6 -275,9 -371,9 -39,0 -81,-2 -125,-3 -45,-2 -90,-3 -139,-6l0 1809c0,390 42,632 128,726 116,135 289,202 521,202l242 0 0 168 -2662 0 0 -168 232 0c263,0 450,-86 563,-257 64,-93 95,-318 95,-671l0 -4022c0,-390 -42,-632 -128,-726 -119,-135 -295,-202 -530,-202l-232 0 0 -169 2262 0c661,0 1147,49 1459,144 314,97 580,275 797,533 219,258 328,566 328,923 0,383 -125,714 -373,996 -250,281 -635,479 -1158,596l1286 1780c293,409 545,683 756,817 209,136 484,220 823,258l0 168zm-4409 -3196c58,0 108,0 150,1 42,2 77,4 103,4 586,0 1028,-129 1325,-385 299,-258 447,-584 447,-981 0,-387 -120,-703 -359,-947 -241,-242 -560,-364 -955,-364 -175,0 -412,28 -711,85l0 2587zm6281 -2681l0 2456 1368 0c355,0 591,-53 710,-159 159,-141 247,-388 265,-741l169 0 0 2165 -169 0c-42,-303 -86,-498 -128,-584 -54,-106 -145,-190 -270,-251 -125,-61 -317,-93 -577,-93l-1368 0 0 2050c0,275 12,442 36,502 25,59 67,107 128,142 61,36 178,53 348,53l1052 0c350,0 604,-25 764,-73 158,-49 311,-146 456,-289 189,-190 383,-475 581,-857l188 0 -536 1556 -4789 0 0 -168 220 0c147,0 286,-36 418,-107 98,-48 165,-121 200,-220 36,-98 53,-298 53,-601l0 -4040c0,-394 -39,-636 -119,-727 -111,-122 -294,-183 -552,-183l-220 0 0 -169 4790 0 66 1369 -178 0c-64,-330 -135,-556 -213,-680 -78,-123 -193,-217 -345,-282 -122,-46 -337,-69 -645,-69l-1703 0zm14711 -338l0 169c-161,0 -292,30 -394,88 -100,58 -197,165 -287,325 -61,106 -158,362 -289,765l-1725 5009 -185 0 -1415 -3975 -1398 3975 -168 0 -1840 -5156c-137,-387 -225,-615 -261,-685 -61,-118 -144,-204 -250,-260 -105,-58 -247,-86 -428,-86l0 -169 2294 0 0 169 -111 0c-161,0 -285,38 -371,111 -86,74 -128,163 -128,266 0,108 67,354 202,742l1223 3485 1033 -2962 -188 -522 -147 -418c-64,-155 -135,-289 -214,-406 -40,-58 -89,-108 -146,-149 -77,-55 -154,-95 -230,-119 -58,-18 -150,-28 -275,-28l0 -169 2414 0 0 169 -166 0c-170,0 -295,38 -375,111 -80,74 -119,174 -119,300 0,156 69,431 207,822l1192 3373 1179 -3422c135,-381 202,-645 202,-792 0,-70 -22,-137 -66,-198 -45,-61 -100,-105 -167,-130 -117,-42 -267,-64 -453,-64l0 -169 1850 0zm3334 4144l-2408 0 -415 973c-103,241 -157,422 -157,541 0,93 46,178 136,250 89,70 285,117 583,139l0 168 -1959 0 0 -168c259,-46 426,-105 503,-178 156,-147 328,-446 517,-894l2186 -5115 154 0 2161 5170c174,415 331,684 474,809 142,123 339,192 593,208l0 168 -2449 0 0 -168c246,-13 414,-53 501,-124 88,-70 130,-156 130,-257 0,-135 -61,-347 -183,-638l-367 -884zm-141 -338l-1047 -2507 -1074 2507 2121 0zm7004 -3806l66 1461 -174 0c-34,-256 -79,-440 -137,-550 -95,-176 -220,-307 -378,-390 -158,-85 -364,-127 -621,-127l-874 0 0 4743c0,383 40,622 123,718 116,128 294,192 534,192l214 0 0 168 -2643 0 0 -168 223 0c266,0 453,-80 566,-239 67,-99 101,-322 101,-671l0 -4743 -745 0c-290,0 -497,22 -618,64 -160,58 -294,169 -408,335 -113,164 -180,387 -202,668l-173 0 65 -1461 5081 0zm5942 -140l140 2109 -140 0c-189,-631 -458,-1087 -808,-1364 -350,-278 -769,-417 -1259,-417 -410,0 -781,105 -1113,314 -331,209 -592,542 -782,1001 -189,458 -285,1028 -285,1710 0,562 89,1050 269,1462 180,412 450,728 809,948 361,221 772,330 1233,330 401,0 756,-86 1062,-258 308,-172 646,-514 1013,-1026l142 93c-311,552 -673,955 -1088,1211 -414,255 -906,383 -1474,383 -1027,0 -1822,-381 -2384,-1145 -421,-569 -632,-1237 -632,-2006 0,-620 139,-1191 416,-1709 276,-521 658,-922 1142,-1208 486,-286 1016,-428 1590,-428 447,0 888,109 1324,330 126,67 218,101 273,101 81,0 153,-30 214,-87 80,-83 136,-197 169,-344l169 0zm2540 3028l2878 0 0 -1791c0,-315 -20,-523 -60,-623 -31,-75 -95,-141 -193,-195 -132,-74 -271,-110 -417,-110l-221 0 0 -169 2663 0 0 169 -221 0c-147,0 -286,35 -417,105 -98,48 -166,122 -200,220 -36,99 -53,300 -53,603l0 4022c0,314 20,522 59,622 32,76 94,142 189,196 135,74 275,110 422,110l221 0 0 168 -2663 0 0 -168 221 0c254,0 439,-75 556,-224 76,-98 114,-332 114,-704l0 -1894 -2878 0 0 1894c0,314 20,522 59,622 30,76 94,142 193,196 131,74 268,110 415,110l224 0 0 168 -2663 0 0 -168 221 0c257,0 443,-75 560,-224 74,-98 110,-332 110,-704l0 -4022c0,-315 -20,-523 -60,-623 -31,-75 -93,-141 -189,-195 -134,-74 -275,-110 -421,-110l-221 0 0 -169 2663 0 0 169 -224 0c-147,0 -284,35 -415,105 -96,48 -161,122 -197,220 -36,99 -55,300 -55,603l0 1791zm12825 -3028l141 2109 -141 0c-189,-631 -458,-1087 -808,-1364 -349,-278 -768,-417 -1259,-417 -409,0 -781,105 -1112,314 -331,209 -592,542 -783,1001 -189,458 -284,1028 -284,1710 0,562 89,1050 268,1462 180,412 450,728 810,948 361,221 772,330 1232,330 402,0 757,-86 1063,-258 308,-172 645,-514 1012,-1026l142 93c-310,552 -673,955 -1087,1211 -414,255 -906,383 -1475,383 -1026,0 -1821,-381 -2384,-1145 -420,-569 -631,-1237 -631,-2006 0,-620 139,-1191 415,-1709 277,-521 658,-922 1143,-1208 485,-286 1015,-428 1590,-428 447,0 887,109 1323,330 127,67 219,101 274,101 81,0 153,-30 214,-87 79,-83 136,-197 168,-344l169 0zm4034 0c805,0 1503,306 2092,919 591,612 886,1376 886,2293 0,944 -297,1726 -892,2350 -594,623 -1314,934 -2159,934 -853,0 -1570,-305 -2152,-912 -581,-608 -871,-1394 -871,-2359 0,-986 335,-1791 1006,-2414 582,-541 1279,-811 2090,-811zm-87 328c-553,0 -999,206 -1333,619 -417,514 -627,1265 -627,2256 0,1014 216,1795 649,2342 333,415 770,623 1315,623 583,0 1063,-228 1442,-683 380,-456 569,-1173 569,-2154 0,-1064 -209,-1858 -626,-2380 -335,-415 -797,-623 -1389,-623zm4604 5137c142,0 262,50 361,148 97,99 145,218 145,358 0,139 -50,259 -148,358 -99,98 -218,148 -358,148 -139,0 -260,-50 -358,-148 -98,-99 -148,-219 -148,-358 0,-142 50,-262 148,-361 98,-97 219,-145 358,-145z"/>
   <polygon class="fil1" points="49184,3068 49871,2767 49988,3036 49302,3336 "/>
   <polygon class="fil1" points="49025,2131 49791,2114 49797,2407 49031,2424 "/>
   <polygon class="fil1" points="49302,1187 49974,1522 49844,1784 49172,1449 "/>
   <polygon class="fil1" points="49899,463 50412,1036 50194,1231 49681,658 "/>
   <polygon class="fil1" points="50733,35 50981,745 50705,841 50457,132 "/>
   <polygon class="fil1" points="51698,13 51663,823 51370,811 51405,0 "/>
   <path class="fil0" d="M38473 15450l249 55 -887 2794 -7984 0 0 -281 386 0c436,0 747,-140 934,-422 106,-161 158,-535 158,-1119l0 -6677c0,-643 -70,-1045 -212,-1206 -198,-223 -491,-335 -880,-335l-386 0 0 -280 4669 0 0 280c-547,-5 -931,44 -1154,151 -221,104 -371,238 -452,397 -80,161 -122,544 -122,1149l0 6506c0,423 42,711 122,869 60,109 156,187 283,239 125,49 521,75 1188,75l752 0c794,0 1349,-57 1668,-174 320,-117 613,-324 877,-620 262,-296 527,-763 791,-1401z"/>
   <path class="fil0" d="M50566 8029l0 274c-261,0 -474,48 -639,142 -162,94 -319,269 -466,527 -99,173 -256,589 -469,1243l-2799 8129 -300 0 -2297 -6451 -2269 6451 -272 0 -2987 -8368c-223,-628 -365,-999 -423,-1113 -99,-190 -233,-329 -406,-421 -170,-93 -400,-139 -694,-139l0 -274 3722 0 0 274 -180 0c-261,0 -462,61 -601,180 -140,119 -208,264 -208,431 0,175 109,576 327,1204l1985 5657 1676 -4807 -304 -847 -238 -680c-104,-251 -221,-469 -348,-659 -65,-94 -144,-175 -238,-241 -124,-88 -248,-154 -373,-192 -93,-31 -243,-46 -446,-46l0 -274 3918 0 0 274 -269 0c-277,0 -479,61 -609,180 -129,119 -192,281 -192,487 0,253 111,700 334,1333l1935 5475 1914 -5553c218,-619 327,-1047 327,-1286 0,-114 -35,-223 -106,-322 -74,-99 -162,-170 -271,-210 -191,-69 -434,-104 -736,-104l0 -274 3002 0z"/>
   <polygon class="fil2" points="47559,5686 51950,6281 50005,9957 45613,9361 "/>
   <path class="fil0" d="M56392 7975l224 3366 -224 0c-302,-1007 -731,-1735 -1289,-2177 -559,-444 -1227,-665 -2010,-665 -654,0 -1247,167 -1776,501 -529,334 -945,865 -1249,1598 -302,731 -454,1641 -454,2728 0,898 142,1676 429,2335 287,658 718,1162 1292,1513 576,352 1232,526 1967,526 641,0 1207,-137 1696,-411 491,-274 1030,-820 1616,-1638l227 149c-496,881 -1075,1524 -1736,1933 -661,406 -1446,611 -2354,611 -1638,0 -2908,-609 -3805,-1828 -671,-908 -1008,-1975 -1008,-3202 0,-990 222,-1900 663,-2728 442,-831 1050,-1472 1823,-1928 776,-456 1621,-683 2539,-683 713,0 1416,174 2112,526 202,107 349,162 437,162 129,0 244,-47 341,-140 127,-132 217,-314 270,-548l269 0z"/>
   <path class="fil3" d="M50081 5622l941 20c63,-122 126,-244 187,-368l141 -284 -19 -36c-35,-65 -63,-140 -59,-215 173,-31 322,-143 400,-304 76,-159 71,-342 -9,-495 84,-56 179,-101 271,-138 243,-99 305,-316 320,-558 12,-182 20,-364 27,-546 7,-146 13,-292 25,-438 13,-151 32,-301 60,-450 35,-190 81,-377 133,-563l19 -68 -131 -54 -35 62c-92,169 -190,336 -298,496 -84,126 -175,247 -272,364 -93,112 -191,221 -288,330 -122,135 -244,271 -363,409 -158,183 -265,382 -161,623 35,79 66,163 88,249 -165,36 -306,145 -380,300 -85,177 -69,384 38,544 -52,66 -132,102 -215,122l-40 10 -91 230c-99,251 -195,504 -289,758zm1128 -1629c-111,-12 -208,70 -219,180 -12,110 65,210 176,222 110,12 207,-70 219,-180 11,-110 -66,-210 -176,-222z"/>
   <g>
    <path class="fil4" d="M51022 5642c63,-122 126,-244 187,-368l141 -284 -19 -36c-35,-65 -63,-140 -59,-215 173,-31 322,-143 400,-304 76,-159 71,-342 -9,-495 84,-56 179,-101 271,-138 243,-99 305,-316 320,-558 12,-182 20,-364 27,-546 7,-146 13,-292 25,-438 13,-151 32,-301 60,-450 35,-190 81,-377 133,-563l19 -68 -131 -54 -35 62c-92,169 -190,336 -298,496 -84,126 -175,247 -272,364 -93,112 -191,221 -288,330 -122,135 -244,271 -363,409 -158,183 -265,382 -161,623 35,79 66,163 88,249 -165,36 -306,145 -380,300 -85,177 -69,384 38,544 -52,66 -132,102 -215,122l-40 10 -91 230c-99,251 -195,504 -289,758l941 20zm187 -1649c-111,-12 -208,70 -219,180 -12,110 65,210 176,222 110,12 207,-70 219,-180 11,-110 -66,-210 -176,-222z"/>
   </g>
   <polygon class="fil4" points="48475,9850 50420,4778 51272,5113 49112,10407 48412,10285 "/>
  </g>
 </g>
</svg>
